<svg width="494" height="494" viewBox="0 0 494 494" fill="none" xmlns="http://www.w3.org/2000/svg">
<g clip-path="url(#clip0_2007_2)">
<path d="M281.56 274.78L294.87 248.09C297.13 243.57 297.13 238.25 294.87 233.73L228.4 100.45C223.07 89.75 230.84 77.18 242.8 77.18H271.16C277.26 77.18 282.84 80.63 285.56 86.09L328.27 171.74C329.23 173.67 331.99 173.67 332.95 171.74L394.27 48.79C353.14 18.14 302.14 0 246.9 0C110.54 0 0 110.54 0 246.9C0 281.77 7.23 314.96 20.28 345.03L136.28 112.44L149.43 86.08C152.15 80.62 157.73 77.17 163.83 77.17H173.06C179.16 77.17 184.74 80.62 187.46 86.08L200.61 112.44L267.37 240.09C269.79 244.71 269.84 250.21 267.51 254.87L253.27 283.42C247.34 295.31 230.44 295.47 224.29 283.7L174.85 189.18C172.18 184.07 164.84 184.14 162.27 189.3L55.66 403.06C86.74 441.08 128.94 469.66 177.29 483.85L249.4 339.26L281.56 274.78Z" fill="black"/>
<path d="M438.23 90.83L437.34 91.23C437.34 91.23 437.37 91.28 437.38 91.31L362.77 240.91L330.61 305.39L313.72 339.27L281.56 403.75L237.04 493.01L236.78 493.6C240.14 493.74 243.51 493.81 246.9 493.81C383.26 493.81 493.8 383.27 493.8 246.91C493.8 187.71 472.96 133.37 438.22 90.84L438.23 90.83Z" fill="black"/>
</g>
<defs>
<clipPath id="clip0_2007_2">
<rect width="493.81" height="493.81" fill="white"/>
</clipPath>
</defs>
</svg>
