<svg xmlns="http://www.w3.org/2000/svg" viewBox="0 0 2709.03 1024.71"><defs><style>.cls-1{fill:#fff;}</style></defs><g id="Layer_2" data-name="Layer 2"><g id="Layer_3" data-name="Layer 3"><path class="cls-1" d="M1405.32,482.29v36.65a33.48,33.48,0,0,1-33.48,33.49H1082.3a33.48,33.48,0,0,1-33.48-33.49V36.84A33.48,33.48,0,0,1,1082.3,3.36h45.94a33.48,33.48,0,0,1,33.48,33.48V415.32a33.49,33.49,0,0,0,33.49,33.48h176.63A33.48,33.48,0,0,1,1405.32,482.29Z"/><path class="cls-1" d="M1606.49,552.81c-45.37,0-79.77-2.43-104.52-25.13s-37.12-52.84-37.12-90.48q0-53.35,38.28-85.07t118.71-44.08l104.44-15.66a4.5,4.5,0,0,0,3.83-4.44h0q0-59.55-72.7-59.55-57.42,0-71.34,35.24a23.06,23.06,0,0,1-21.57,14.25h-62.71a23.2,23.2,0,0,1-22.23-29.65q11.45-40.35,44.07-70.11,44.07-40.2,133-40.21,88.17,0,133,39.44t44.85,111.36V480c0,1.72.06,15.68.07,30.92a41.86,41.86,0,0,1-41.86,41.9Zm123.62-166.68a13.72,13.72,0,0,0-16-13.54l-81.45,13.57q-61.89,10.84-61.87,47.95,0,42.54,61.09,42.53,47.17,0,72.7-24.75t25.52-65.73Z"/><path class="cls-1" d="M2004.29,165.16a10.23,10.23,0,0,0,16.9,7.73A149.54,149.54,0,0,1,2052.62,153q31.32-15.08,71.54-15.08,85.83,0,136.1,60.32t50.27,151.58q0,91.26-50.27,151.57c-33.51,40.21-73.89,51.42-131.12,51.42-58.77,0-133.36-.38-133.36-.38h-59.45a41.86,41.86,0,0,1-41.86-41.86V36.65a34,34,0,0,1,34-33.95h41.9a34,34,0,0,1,34,33.95Zm24.36,101.91q-27.47,32.48-27.46,82.75t27.46,82.74Q2056.09,465,2101,465t72.3-32.48q27.45-32.47,27.46-82.74t-27.46-82.75q-27.45-32.49-72.3-32.48T2028.65,267.07Z"/><path class="cls-1" d="M2537.35,552.15q-140.38,0-168.92-101.26a31.08,31.08,0,0,1,29.9-39.49h50.79c12.19,0,23.52,7,28.28,18.22a54.68,54.68,0,0,0,13.94,19.29Q2508,464,2540.44,464q30.93,0,47.18-10.05t16.24-27.07q0-18.57-23.2-27.45t-56.07-14.31a620.4,620.4,0,0,1-66.12-14.69q-33.25-9.29-56.45-36.35t-23.2-71.92q0-56.44,44.85-95.12t117.55-38.67q82.74,0,123,41.76,23.76,24.69,34.56,53.42c7.59,20.19-7.61,41.7-29.18,41.7h-44.45a31.11,31.11,0,0,1-28.15-18,51.08,51.08,0,0,0-12.82-16.81q-15.87-13.92-43.7-13.92-26.3,0-41,11.21T2484.76,256q0,18.55,23.2,27.07T2564,296.56a546,546,0,0,1,65.73,14.31q32.86,9.27,56.07,37.12t23.2,74.24q0,56.46-46,93.19T2537.35,552.15Z"/><path class="cls-1" d="M576,430.31,419.14,130.37,388.25,68.43a37.81,37.81,0,0,0-33.83-20.94H332.74a37.79,37.79,0,0,0-33.83,20.94L268,130.37,4.45,658.82a42.54,42.54,0,0,0-.28,37.31A578.87,578.87,0,0,0,36,753.87c17.62,28.11,59.15,26.22,74-3.47L329.08,311a16.6,16.6,0,0,1,29.56-.29L474.8,532.77c14.46,27.66,54.17,27.27,68.1-.65L576.35,465A38.18,38.18,0,0,0,576,430.31Z"/><path class="cls-1" d="M960.68,59.8A585.29,585.29,0,0,0,908.57,8.39c-17-14.78-43.42-9.33-53.48,10.82C815.86,97.84,730.15,269.67,730.15,269.67a6.14,6.14,0,0,1-11,0L618.78,68.43a37.82,37.82,0,0,0-33.84-20.94H518.31a37.8,37.8,0,0,0-33.83,54.68L643.25,420.51a26.26,26.26,0,0,1,0,23.41l-33.87,67.9L533.82,663.33l-149.63,300a35.73,35.73,0,0,0,24.77,50.9,579.18,579.18,0,0,0,71.73,10.35,34.45,34.45,0,0,0,33.57-19c26.4-53,95.12-190.77,95.12-190.77L685,663.33l39.7-79.6,75.56-151.51S928,175.73,965.93,99.39A35.61,35.61,0,0,0,960.68,59.8Z"/></g></g></svg>